<svg width="34" height="34" viewBox="0 0 34 34" fill="none" xmlns="http://www.w3.org/2000/svg">
<path d="M8.13167 22.6666C8.2875 21.9724 8.00417 20.9808 7.50834 20.4849L4.06584 17.0424C2.98917 15.9658 2.56417 14.8183 2.87584 13.8266C3.20167 12.8349 4.2075 12.1549 5.70917 11.8999L10.1292 11.1633C10.7667 11.0499 11.5458 10.4833 11.8433 9.90242L14.28 5.01492C14.9883 3.61242 15.9517 2.83325 17 2.83325C18.0483 2.83325 19.0117 3.61242 19.72 5.01492L22.1567 9.90242C22.3408 10.2708 22.7233 10.6249 23.1342 10.8658L7.87667 26.1233C7.67834 26.3216 7.33834 26.1374 7.395 25.8541L8.13167 22.6666ZM26.4917 20.4878C25.9817 20.9978 25.6983 21.9753 25.8683 22.6694L26.8458 26.9336C27.2567 28.7044 27.0017 30.0361 26.1233 30.6736C25.7503 30.9343 25.3033 31.0684 24.8483 31.0561C24.1258 31.0561 23.2758 30.7869 22.3408 30.2344L18.19 27.7694C17.5383 27.3869 16.4617 27.3869 15.81 27.7694L11.6592 30.2344C10.0867 31.1552 8.74084 31.3111 7.87667 30.6736C7.55084 30.4328 7.31 30.1069 7.15417 29.6819L24.3808 12.4553C25.0325 11.8036 25.9533 11.5061 26.8458 11.6619L28.2767 11.9028C29.7783 12.1578 30.7842 12.8378 31.11 13.8294C31.4217 14.8211 30.9967 15.9686 29.92 17.0453L26.4917 20.4878Z" fill="#EDEFEE"/>
</svg>
