<svg width="34" height="34" viewBox="0 0 34 34" fill="none" xmlns="http://www.w3.org/2000/svg">
<path d="M19.4508 4.97249L21.9442 9.95916C22.2842 10.6533 23.1908 11.3192 23.9558 11.4467L28.475 12.1975C31.365 12.6792 32.045 14.7758 29.9625 16.8442L26.4492 20.3575C25.8542 20.9525 25.5283 22.1 25.7125 22.9217L26.7183 27.2708C27.5117 30.7133 25.6842 32.045 22.6383 30.2458L18.4025 27.7383C17.6375 27.285 16.3767 27.285 15.5975 27.7383L11.3617 30.2458C8.32999 32.045 6.48833 30.6992 7.28166 27.2708L8.28749 22.9217C8.47166 22.1 8.14583 20.9525 7.55083 20.3575L4.03749 16.8442C1.96916 14.7758 2.63499 12.6792 5.52499 12.1975L10.0442 11.4467C10.795 11.3192 11.7017 10.6533 12.0417 9.95916L14.535 4.97249C15.895 2.26666 18.105 2.26666 19.4508 4.97249Z" stroke="#EDEFEE" stroke-width="1.5" stroke-linecap="round" stroke-linejoin="round"/>
</svg>
